<svg xmlns="http://www.w3.org/2000/svg" xmlns:xlink="http://www.w3.org/1999/xlink" viewBox="0,0,256,256" width="48px" height="48px" fill-rule="nonzero"><g fill="none" fill-rule="nonzero" stroke="none" stroke-width="1" stroke-linecap="butt" stroke-linejoin="miter" stroke-miterlimit="10" stroke-dasharray="" stroke-dashoffset="0" font-family="none" font-weight="none" font-size="none" text-anchor="none" style="mix-blend-mode: normal"><g transform="scale(8.53333,8.53333)"><path d="M15,1c-7.73199,0 -14,6.26801 -14,14c0,7.73199 6.26801,14 14,14c7.73199,0 14,-6.26801 14,-14c0,-7.73199 -6.26801,-14 -14,-14z" fill="#5c7cfa"></path><path d="M28.921,16.479c0.002,-0.02 0.006,-0.039 0.008,-0.059c-0.003,0.019 -0.007,0.039 -0.008,0.059zM1.071,16.415c0.003,0.027 0.008,0.053 0.011,0.08c-0.003,-0.027 -0.008,-0.054 -0.011,-0.08zM16.996,18.71h3.623l0.569,-3.68h-4.192v-2.012c0,-1.529 0.5,-2.885 1.93,-2.885h2.298v-3.211c-0.404,-0.054 -1.257,-0.174 -2.871,-0.174c-3.37,0 -5.345,1.78 -5.345,5.834v2.449h-3.464v3.68h3.464v9.92c0.684,0.103 1.379,0.173 2.093,0.173c0.644,0 1.274,-0.059 1.895,-0.143z" fill="#ffffff"></path><g fill="#4e7ab5"><path d="M15,2c7.168,0 13,5.832 13,13c0,7.168 -5.832,13 -13,13c-7.168,0 -13,-5.832 -13,-13c0,-7.168 5.832,-13 13,-13M15,1c-7.732,0 -14,6.268 -14,14c0,7.732 6.268,14 14,14c7.732,0 14,-6.268 14,-14c0,-7.732 -6.268,-14 -14,-14z"></path></g></g></g></svg>