<?xml version="1.0" standalone="no"?>
<!DOCTYPE svg PUBLIC "-//W3C//DTD SVG 20010904//EN"
 "http://www.w3.org/TR/2001/REC-SVG-20010904/DTD/svg10.dtd">
<svg version="1.0" xmlns="http://www.w3.org/2000/svg"
 width="840.000000pt" height="592.000000pt" viewBox="0 0 840.000000 592.000000"
 preserveAspectRatio="xMidYMid meet">

<g transform="translate(0.000000,592.000000) scale(0.100000,-0.100000)"
fill="#000000" stroke="none">
<path d="M4689 5165 c-195 -172 -372 -430 -463 -676 -61 -164 -70 -206 -161
-720 -17 -96 -17 -97 -48 -103 -24 -5 -87 -62 -257 -231 l-226 -225 -49 50
-49 50 227 228 c196 197 227 232 227 258 0 45 -31 68 -85 65 -11 0 -116 -98
-245 -226 l-226 -225 -49 50 -49 50 227 228 c196 197 227 232 227 258 0 39
-27 64 -70 64 -31 0 -55 -21 -260 -225 l-226 -225 -49 50 -50 50 228 228 c198
198 227 231 227 258 0 38 -27 64 -66 64 -26 0 -63 -33 -258 -227 l-228 -226
-51 51 -52 52 228 228 c198 198 227 231 227 258 0 38 -27 64 -66 64 -24 0 -64
-35 -256 -227 l-228 -228 -52 53 -53 52 228 228 c198 198 227 231 227 258 0
38 -27 64 -66 64 -24 0 -64 -35 -256 -227 -242 -242 -247 -245 -263 -172 -15
65 -1 85 198 278 186 183 217 222 217 278 0 35 -36 116 -50 111 -5 -1 -144
-135 -309 -295 -323 -316 -351 -351 -351 -442 0 -24 9 -63 20 -85 13 -27 198
-219 542 -563 l523 -521 170 23 c94 13 176 24 183 25 10 0 10 4 0 20 -12 18 3
36 172 205 102 102 186 181 188 176 2 -5 -6 -58 -18 -118 l-21 -108 -71 -72
c-40 -40 -70 -74 -67 -76 8 -6 644 85 654 95 17 15 -17 63 -48 66 -15 2 -27 9
-27 18 0 8 79 447 175 975 97 529 174 964 171 966 -2 2 -32 -21 -67 -52z"/>
<path d="M5600 3230 c-765 -106 -1745 -240 -2305 -316 -55 -7 -161 -22 -236
-32 l-136 -18 -11 59 c-35 187 -184 341 -378 392 -75 19 -213 19 -288 0 -261
-68 -440 -322 -398 -567 18 -104 55 -172 136 -254 112 -111 219 -154 389 -154
78 0 113 5 175 26 96 31 204 103 257 171 35 45 49 54 115 77 149 50 229 61
445 60 140 -1 256 -8 385 -23 102 -13 268 -25 370 -28 l185 -5 590 81 c325 45
628 88 675 96 221 40 506 161 689 292 52 38 139 110 193 162 89 84 112 113 91
110 -5 -1 -429 -59 -943 -129z m-3110 -110 c131 -35 233 -182 215 -308 -35
-254 -361 -370 -553 -197 -148 133 -122 368 52 470 87 51 182 62 286 35z"/>
<path d="M4996 2604 l-79 -13 -191 -190 -191 -191 -50 50 -49 50 124 125 c69
69 122 125 119 125 -3 0 -55 -7 -115 -15 l-109 -16 -60 -59 -61 -60 -32 33
c-18 18 -32 40 -32 49 0 14 -19 16 -137 17 -76 0 -181 5 -233 11 -52 5 -102
10 -110 10 -8 0 22 -37 67 -82 l81 -83 6 -130 c15 -287 -52 -644 -131 -700
-15 -11 -57 -49 -93 -85 -111 -110 -160 -233 -160 -396 0 -216 104 -391 286
-480 77 -39 79 -39 198 -39 118 0 123 1 196 36 287 137 400 495 248 782 -63
118 -178 209 -307 243 -36 10 -67 18 -69 19 -2 2 70 403 84 464 5 22 66 -36
567 -536 602 -600 583 -583 683 -583 74 0 108 28 428 356 242 247 306 318 295
326 -56 38 -118 47 -172 24 -18 -8 -111 -93 -207 -191 -96 -97 -187 -183 -202
-191 -40 -21 -101 -18 -132 7 l-28 22 231 231 c164 165 231 238 231 254 0 29
-43 72 -72 72 -16 0 -89 -67 -253 -230 l-230 -230 -53 52 -52 53 230 230 c163
164 230 237 230 253 0 29 -43 72 -72 72 -16 0 -89 -67 -253 -230 l-231 -230
-52 53 -52 52 230 230 c167 167 230 236 230 253 0 29 -42 72 -72 72 -16 0 -89
-67 -253 -230 l-231 -230 -52 53 -52 52 230 230 c167 167 230 236 230 253 0
29 -42 72 -72 72 -16 0 -89 -67 -253 -230 l-231 -230 -49 50 -49 50 221 223
c206 207 248 258 226 276 -4 5 -44 2 -87 -5z m-808 -1228 c79 -40 130 -106
158 -201 43 -151 -32 -323 -172 -391 -146 -71 -328 -2 -395 151 -26 59 -36
164 -20 220 17 65 72 147 125 186 94 71 208 84 304 35z"/>
</g>
</svg>
